<?xml version="1.0" encoding="UTF-8"?>
<svg width="163px" height="265px" viewBox="0 0 163 265" version="1.1" xmlns="http://www.w3.org/2000/svg" xmlns:xlink="http://www.w3.org/1999/xlink">
    <!-- Generator: Sketch 49.1 (51147) - http://www.bohemiancoding.com/sketch -->
    <title>Page 1 Copy 4</title>
    <desc>Created with Sketch.</desc>
    <defs>
        <polygon id="path-1" points="0.344753385 0.36 34.766391 0.36 34.766391 44.6849119 0.344753385 44.6849119"></polygon>
        <polygon id="path-3" points="0.0280024116 0.0880571429 111.791195 0.0880571429 111.791195 92 0.0280024116 92"></polygon>
    </defs>
    <g id="Page-1" stroke="none" stroke-width="1" fill="none" fill-rule="evenodd" opacity="0.7">
        <g id="Page-1-Copy-4">
            <path d="M0.0714084003,104.723199 C-0.326969939,102.867009 0.989663627,101.109523 2.82172484,101.05165 C11.4316938,100.780039 34.2368002,101.1958 47.7488078,112.089729 C58.7733465,120.978704 58.4533433,140.28904 54.4548432,145.626473 C50.4563431,150.96355 32.4968041,156.051739 21.4722654,147.163119 C7.96060007,136.26919 1.9428283,113.446011 0.0714084003,104.723199" id="Fill-1" fill="#AFD755"></path>
            <path d="M0,103.29985 C21.2702969,114.272567 45.3442622,137.226732 54.1533913,146 C54.2459782,145.891592 54.3683986,145.784249 54.4500123,145.675485 C58.4562817,140.332191 58.7765638,121.000646 47.7306038,112.101909 C34.1930276,101.196015 11.3429238,100.779797 2.71622528,101.051707 C1.36994319,101.094004 0.316852943,102.059017 0,103.29985" id="Fill-3" fill="#BEE86E"></path>
            <g id="Group-7" transform="translate(85.000000, 0.000000)">
                <mask id="mask-2" fill="white">
                    <use xlink:href="#path-1"></use>
                </mask>
                <g id="Clip-6"></g>
                <path d="M28.5202944,0.638520492 C30.4841833,-0.191766393 32.7280722,0.910733607 33.1465167,2.91138934 C34.5822944,9.77905328 36.7099056,24.6460205 31.1071833,34.9052828 C26.2149611,43.8628648 12.2274056,46.0804057 7.82012778,43.914873 C3.41246111,41.7493402 -2.74792778,29.6336434 2.14429444,20.6760615 C7.74662778,10.4167992 21.7769611,3.48827459 28.5202944,0.638520492" id="Fill-5" fill="#AFD755" mask="url(#mask-2)"></path>
            </g>
            <path d="M117,1 C116.071965,0.410501639 114.881669,-0.210511549 113.746522,0.265191242 C106.867004,3.14813671 92.5521,10.1564514 86.8362954,20.5338611 C81.8687907,29.5513206 88.0686492,41.7248348 92.5608289,44 C99.8679278,28.9008825 108.014318,14.5675492 117,1 Z" id="Fill-8" fill="#BEE86E"></path>
            <path d="M161.687036,118.330866 C163.297236,119.492174 163.45172,121.80223 162.010116,123.165585 C154.860397,129.926582 134.346688,147.609929 114.107782,148.949275 C97.7606874,150.030429 83.5232669,133.551975 83.0156231,125.963952 C82.5079794,118.37593 94.4262812,100.166965 110.773004,99.0850725 C131.012281,97.7460965 153.699909,112.571238 161.687036,118.330866" id="Fill-10" fill="#AFD755"></path>
            <path d="M83.015611,126.191819 C83.0312173,126.443751 83.0988445,126.730873 83.1400897,127 C103.923216,114.942866 147.439512,120.104268 162.545662,122.376053 C163.347157,120.906851 163.095227,118.98977 161.734135,117.928057 C153.742226,111.692547 131.041011,95.6424942 110.789614,97.0921015 C94.4327306,98.2625844 82.5080348,117.976444 83.015611,126.191819" id="Fill-12" fill="#BEE86E"></path>
            <path d="M138,60 C138.08672,60.7231501 137.930342,62.3967203 137.543148,63.0827304 C134.038513,69.2913571 125.80642,82.068955 115.474206,86.1082005 C106.452335,89.6350331 95.8141526,81.8737685 94.3175674,77.2439585 C92.8209822,72.6137636 96.6172324,59.2097977 105.639103,55.6829651 C115.971317,51.6437196 129.69054,55.8404233 135.972346,58.2230853 C137.108152,58.6536942 137.858084,58.8165792 138,60 Z" id="Fill-14" fill="#AFD755"></path>
            <path d="M94.3178341,73.752667 C94.3479522,73.8321669 94.4043362,73.9185371 94.4418087,74 C109.43783,66.0817451 129.721333,61.8970408 137.992259,60.4356169 C138.085415,59.2215259 137.333162,58.0221571 135.987653,57.5889972 C129.703472,55.5638764 115.979416,51.9975047 105.643298,55.4303951 C96.6176677,58.4275084 92.8203332,69.8185673 94.3178341,73.752667" id="Fill-16" fill="#BEE86E"></path>
            <path d="M32,51 C32,50 33.9766436,50.0202982 35.1293459,50.006378 C42.1444288,49.9220766 57.1610675,50.5886057 66.3024819,57.1757636 C74.2837095,62.927447 74.0523374,75.4222116 71.1572297,78.875826 C68.2624916,82.3294405 55.260564,85.6216487 47.2789668,79.870308 C38.1375524,73.2834928 33.734091,59.9556525 32.0908319,53.6313367 C31.882068,52.8285655 32,52 32,51 Z" id="Fill-18" fill="#AFD755"></path>
            <path d="M32,51.2078798 C41.4065298,56.3337518 62.7805625,68.9139925 69.9875812,81 C70.4571856,80.6359477 70.8667931,80.2643267 71.1538147,79.8877861 C74.054399,76.0739406 74.2862383,62.2759032 66.2885214,55.9239091 C57.1293857,48.6496743 42.0820489,47.9136225 35.0527983,48.0070954 C33.2828938,48.0305582 32.0218507,49.5000127 32,51.2078798" id="Fill-20" fill="#BEE86E"></path>
            <path d="M18.5874717,122.039767 C17.1014596,121.176911 16.5618248,119.219145 17.3858286,117.663433 C18.2094818,116.107722 20.0797952,115.539338 21.5654566,116.405499 C53.0371434,134.653259 71.7076677,163.771541 72.486439,164.999368 C73.426154,166.484215 73.0397488,168.481636 71.6256179,169.463089 C70.895235,169.967585 70.0375697,170.10711 69.2493311,169.921321 C68.5021175,169.745078 67.8176683,169.280604 67.3628883,168.56168 C67.1795036,168.270144 48.7568818,139.529683 18.5874717,122.039767 Z" id="Fill-22" fill="#96BE4B"></path>
            <path d="M131.018994,117.062716 C130.856477,118.263392 131.753935,119.357168 133.056483,119.617084 C133.144363,119.634411 133.235855,119.648007 133.328851,119.65707 C134.957337,119.829814 135.902949,119.964437 135.936355,119.968702 C137.37283,120.178234 138.728347,119.313449 138.9646,118.040797 C139.201454,116.766013 138.224543,115.55814 136.788971,115.356073 C136.788971,115.356073 135.752771,115.203323 133.947922,115.016717 C132.49971,114.863433 131.188434,115.781534 131.018994,117.062716" id="Fill-24" fill="#96BE4B"></path>
            <path d="M48.4389036,62.9031061 C49.3095329,63.4325916 50.1386457,63.9834992 50.9360103,64.5476172 C51.1878579,64.7264926 51.4586322,64.8514555 51.7339855,64.9239339 C52.8256302,65.2113485 53.9981714,64.6736512 54.6117636,63.4907886 C55.3786013,62.0130136 54.9744241,60.0889428 53.7081651,59.1913525 C52.8170826,58.5590405 51.8875362,57.9442233 50.9167783,57.3501142 C49.6028972,56.5624912 47.9871043,57.1458892 47.3036053,58.6772196 C46.6201062,60.2114064 47.1299068,62.1008447 48.4389036,62.9031061" id="Fill-26" fill="#96BE4B"></path>
            <path d="M60.9942229,68.6739646 C59.6836044,69.9015213 59.6661396,71.9032941 60.9573949,73.1488977 C72.6679153,84.4549799 73.3782766,97.6556357 73.4037145,100.201345 C70.7517243,113.072824 69.2197586,125.141211 68.3863845,136.023549 C68.3837268,136.056756 68.3803097,136.088519 68.3784114,136.121725 C65.9785216,167.603266 69.5348841,188.926153 69.6115773,189.357837 C69.8416569,190.664801 70.8853679,191.648723 72.1637145,191.922315 C72.5722387,192.010024 73.0054414,192.026627 73.4450984,191.955883 C75.2568804,191.665326 76.4794156,190.035682 76.1779582,188.311111 C76.104682,187.894226 72.7149943,167.465387 74.9501076,137.212125 C83.452802,121.594976 109.63252,119.821317 124.589213,120.175399 C126.424914,120.219795 127.954982,118.839561 127.999023,117.090807 C128.042685,115.34494 126.617407,113.876637 124.754749,113.848844 C108.368221,113.458307 88.1967701,115.49834 76.0321652,125.776465 C77.291908,114.828796 79.3261762,102.909838 82.4569293,90.3909978 C99.0029182,71.1254685 122.426237,67.0742788 122.663151,67.0342145 C124.475312,66.7407704 125.689874,65.102825 125.378166,63.3793369 C125.066457,61.6554878 123.332128,60.5048113 121.533255,60.7978945 C120.625845,60.9440752 102.438546,64.1127668 85.8929367,77.9324345 C91.6783377,58.8112812 100.132434,38.6729992 112.432961,18.7689671 C113.366188,17.2642086 112.83617,15.3227127 111.249152,14.438049 C109.656819,13.548693 107.62331,14.0579792 106.6935,15.5634597 C92.1047064,39.1682087 82.7712955,63.10791 76.8898381,85.367436 C74.8441799,80.1374165 71.4279154,74.2360488 65.7017427,68.707532 C64.4131451,67.4655377 62.304082,67.4478517 60.9942229,68.6739646" id="Fill-28" fill="#96BE4B"></path>
            <g id="Group-32" transform="translate(20.000000, 173.000000)">
                <mask id="mask-4" fill="white">
                    <use xlink:href="#path-3"></use>
                </mask>
                <g id="Clip-31"></g>
                <path d="M70.6149616,92.000073 L41.4712265,92.000073 C35.9858225,92.000073 30.7433325,90.9734698 25.9325245,89.1053587 C6.86545166,81.7019143 -3.55314437,61.3859778 1.15122649,41.7479937 L5.00150464,25.6742794 C5.43763709,23.8547238 5.70502781,22.0030413 5.89676291,20.1429619 C7.0586702,8.87807302 16.7229351,0.0880571429 28.4721801,0.0880571429 L82.872657,0.0880571429 C94.621902,0.0880571429 104.285796,8.87807302 105.448074,20.1429619 C105.679862,22.3896603 106.145664,24.6067873 106.726803,26.7914222 L110.410935,40.631581 C117.161717,65.9947397 98.3345907,91.3224857 71.7086305,91.9865651 C71.3451868,91.995327 70.9806305,92.000073 70.6149616,92.000073" id="Fill-30" fill="#F7C037" mask="url(#mask-4)"></path>
            </g>
        </g>
    </g>
</svg>